<svg width="160" height="30" viewBox="0 0 160 30" fill="none" xmlns="http://www.w3.org/2000/svg">
<path d="M131.423 0.943848H139.617L145.494 24.8596H146.223L151.754 0.943848H160V29.1082H155.918V5.03452H154.998L149.468 28.9503H142.294L136.418 5.03452H135.506V29.1071H131.423V0.943848Z" fill="black"/>
<path d="M116.663 0.787109V24.0735C116.663 27.2885 119.265 29.8954 122.473 29.8954C125.682 29.8954 128.283 27.2896 128.283 24.0735V0.787109H124.2V24.0735C124.2 25.0293 123.427 25.8047 122.473 25.8047C121.52 25.8047 120.747 25.0303 120.747 24.0735V0.787109H116.663Z" fill="black"/>
<path d="M93.7393 29.1082V0.787109H97.8214V12.8447H97.9579L109.127 0.888443H115.148L101.916 15.0538L114.993 29.2096H109.001L97.9579 17.2533H97.8214V29.1082H93.7393Z" fill="black"/>
<path d="M86.5166 0.787109V29.1082H90.5987V0.787109H86.5166Z" fill="black"/>
<path d="M55.4274 12.5866V0.787109H59.5096V29.1082H55.4274V16.6783H51.0306V29.1082H46.9485V0.787109H51.0306V12.5877H55.4274V12.5866Z" fill="black"/>
<path d="M14.7595 5.03452H9.57762V29.1071H5.49548V5.03452H0V0.943848H14.7595V5.03452Z" fill="black"/>
<path fill-rule="evenodd" clip-rule="evenodd" d="M44.1214 17.3078H17.8878C18.2441 19.7024 19.2275 21.4507 20.5203 22.7158C22.195 24.3542 24.2345 25.3408 26.8883 25.6832C29.5401 26.0256 32.3561 25.7035 34.7817 24.8576C36.9748 24.0939 38.6878 22.9611 39.7182 21.6779V19.3526H44.1204V22.9558L43.7822 23.4688C42.1609 25.9307 39.1006 27.6832 36.1214 28.7211C33.1155 29.7686 29.6617 30.1654 26.3657 29.7398C23.0718 29.3152 20.1289 28.0502 17.667 25.6416C15.1667 23.1958 13.6584 19.728 13.6584 15.2608C13.6606 4.49174 20.4787 0 28.8905 0C37.3022 0 44.1214 4.09067 44.1214 15.2619V17.3078ZM17.9294 13.216C18.9683 6.01494 23.4313 4.09067 28.8915 4.09067C34.3518 4.09067 39.138 6.09494 39.8537 13.216H17.9305H17.9294Z" fill="black"/>
<path d="M83.6896 28.9504V0.787109H79.6075V24.8597H78.0107L71.2587 0.94391H62.8064V29.1082H66.8885V5.03458H68.1707L74.9227 28.9504H83.6896Z" fill="black"/>
</svg>
